<svg width="37" height="37" viewBox="0 -84 512.00084 512" xmlns="http://www.w3.org/2000/svg">
                    <path d="m485.1875 187.5625h4c6.101562 0 11.832031-2.375 16.113281-6.675781 4.320313-4.300781 6.699219-10.03125 6.699219-16.132813 0-12.582031-10.234375-22.8125-22.8125-22.8125h-9.28125c3.1875-2.351562 6.230469-4.953125 9.085938-7.804687 14.90625-14.921875 23.078124-34.746094 23.007812-55.828125-.140625-43.179688-35.863281-78.308594-79.632812-78.308594h-74.441407c-4.199219 0-7.605469 3.40625-7.605469 7.605469s3.40625 7.601562 7.605469 7.601562h74.441407c35.410156 0 64.3125 28.332031 64.425781 63.152344.054687 17.003906-6.535157 32.992187-18.554688 45.023437-11.976562 11.96875-27.894531 18.558594-44.8125 18.558594h-410.613281c-4.195312 0-7.605469-3.410156-7.605469-7.605468 0-4.191407 3.410157-7.601563 7.605469-7.601563h409.851562c26.359376 0 48.300782-21.09375 48.90625-47.015625.304688-13.070312-4.5625-25.421875-13.707031-34.78125-9.144531-9.363281-21.378906-14.519531-34.4375-14.519531h-410.613281c-4.195312 0-7.605469-3.414063-7.605469-7.605469 0-4.195312 3.410157-7.605469 7.605469-7.605469h304.695312c4.199219 0 7.601563-3.402343 7.601563-7.601562s-3.402344-7.605469-7.601563-7.605469h-304.695312c-12.578125 0-22.8125 10.234375-22.8125 22.8125s10.234375 22.8125 22.8125 22.8125h4c12.382812 20.148438 12.382812 45.75 0 65.898438h-4c-12.578125 0-22.8125 10.234374-22.8125 22.8125 0 12.578124 10.234375 22.8125 22.8125 22.8125h9.835938c-19.699219 14.265624-32.5625005 37.234374-32.648438 63.101562-.0664062 21.085938 8.105469 40.910156 23.011719 55.828125 14.851562 14.839844 34.582031 23.011719 55.5625 23.011719h248.9375v37.261718c0 2.746094 1.480469 5.28125 3.875 6.625 2.390625 1.347657 5.328125 1.300782 7.671875-.125l38.636718-23.457031 38.632813 23.457031c1.210937.734376 2.578125 1.105469 3.945313 1.105469 1.285156 0 2.570312-.328125 3.730468-.980469 2.390625-1.347656 3.875-3.878906 3.875-6.625v-37.261718h61.308594c6.101562 0 11.832031-2.378906 16.113281-6.679688 4.320313-4.300781 6.699219-10.03125 6.699219-16.132812 0-12.578125-10.234375-22.8125-22.8125-22.8125h-4c-12.382812-20.148438-12.382812-45.753906 0-65.902344zm-436.542969-88.710938h373.628907c4.199218 0 7.601562-3.40625 7.601562-7.605468 0-4.199219-3.402344-7.601563-7.601562-7.601563h-371.140626c.21875-3.375.21875-6.761719 0-10.140625h371.140626c4.199218 0 7.601562-3.402344 7.601562-7.601562 0-4.199219-3.402344-7.605469-7.601562-7.605469h-373.628907c-1.152343-4.324219-2.695312-8.5625-4.605469-12.671875h389.386719c8.929688 0 17.300781 3.53125 23.5625 9.9375 6.253907 6.40625 9.585938 14.859375 9.378907 23.800781-.417969 17.734375-15.535157 32.160157-33.703126 32.160157h-388.625c1.910157-4.109376 3.453126-8.347657 4.605469-12.671876zm379.234375 116.59375h32.988282c-.21875 3.375-.21875 6.761719 0 10.136719h-32.988282zm35.476563-15.207031h-373.628907c-4.199218 0-7.605468 3.402344-7.605468 7.601563 0 4.199218 3.40625 7.605468 7.605468 7.605468h237.785157v10.136719h-161.1875c-4.199219 0-7.605469 3.40625-7.605469 7.605469s3.40625 7.601562 7.605469 7.601562h161.1875v12.675782h-248.175781c-18.171876 0-33.289063-14.429688-33.703126-32.164063-.207031-8.941406 3.125-17.394531 9.386719-23.800781 6.257813-6.410156 14.625-9.9375 23.554688-9.9375h389.386719c-1.910157 4.113281-3.453126 8.351562-4.605469 12.675781zm-384.78125 83.644531c-16.917969 0-32.835938-6.59375-44.804688-18.554687-12.023437-12.03125-18.613281-28.023437-18.5625-45.03125.117188-34.820313 29.015625-63.148437 64.421875-63.148437h409.558594c4.191406 0 7.605469 3.410156 7.605469 7.605468 0 2.027344-.792969 3.929688-2.246094 5.378906-1.429687 1.433594-3.332031 2.222657-5.359375 2.222657h-410.613281c-13.058594 0-25.285157 5.15625-34.433594 14.515625-9.144531 9.359375-14.015625 21.710937-13.710937 34.785156.605468 25.925781 22.542968 47.015625 48.90625 47.015625h248.175781v15.210937zm334.097656 38.957032-31.03125-18.839844c-1.210937-.738281-2.578125-1.105469-3.945313-1.105469-1.367187 0-2.734374.367188-3.945312 1.105469l-31.03125 18.839844v-107.394532h69.953125zm84.121094-46.5625c0 2.027344-.792969 3.929687-2.246094 5.378906-1.429687 1.4375-3.332031 2.226562-5.359375 2.226562h-61.308594v-15.210937h61.308594c4.191406 0 7.605469 3.410156 7.605469 7.605469zm-68.914063-22.8125v-12.671875h35.476563c1.15625 4.320312 2.695312 8.5625 4.605469 12.671875zm0 0" />
                    <path d="m89.726562 240.792969h46.175782c4.199218 0 7.601562-3.40625 7.601562-7.605469s-3.402344-7.601562-7.601562-7.601562h-46.175782c-4.199218 0-7.605468 3.402343-7.605468 7.601562s3.40625 7.605469 7.605468 7.605469zm0 0" />
                    </svg>
