 <svg xmlns="http://www.w3.org/2000/svg" xmlns:xlink="http://www.w3.org/1999/xlink" x="0px" y="0px"
                      viewBox="0 0 423.118 423.118" style="enable-background:new 0 0 423.118 423.118;" xml:space="preserve"
                      width="32" height="32">
                      <g>
                        <path d="M326.536,177.957l0.002-148.862C326.539,13.052,313.487,0,297.444,0s-29.096,13.052-29.096,29.095v52.149
                        c-16.854-9.557-35.942-14.672-55.749-14.709h-2.078c-29.821,0.056-58.02,11.607-79.399,32.525
                        c-21.324,20.864-33.589,48.799-34.534,78.659c-1.409,44.529-1.409,89.685,0,134.213c0.945,29.86,13.21,57.795,34.534,78.66
                        c21.38,20.918,49.578,32.469,79.402,32.525h2.069c0.001,0,0.002,0,0.004,0c29.82-0.057,58.019-11.608,79.398-32.525
                        c21.325-20.864,33.589-48.799,34.534-78.659C327.938,267.483,327.939,222.409,326.536,177.957z M283.348,29.095
                        c0-7.772,6.323-14.095,14.096-14.095c7.771,0,14.095,6.323,14.095,14.095v95.268c-5.248-9.202-11.794-17.721-19.543-25.303
                        c-2.771-2.711-5.659-5.261-8.647-7.653V29.095z M311.538,311.458c-0.822,25.972-11.487,50.268-30.032,68.412
                        c-18.568,18.167-43.05,28.199-68.937,28.248h-2.019c-25.888-0.049-50.369-10.081-68.938-28.248
                        c-18.544-18.144-29.21-42.44-30.032-68.412c-1.398-44.214-1.398-89.05,0-133.264c0.822-25.972,11.488-50.268,30.032-68.412
                        c18.568-18.167,43.05-28.198,68.938-28.247h2.018c25.888,0.049,50.369,10.081,68.937,28.247
                        c18.545,18.144,29.21,42.44,30.032,68.412C312.937,222.408,312.937,267.244,311.538,311.458z" />
                        <path d="M261.359,141.104h-96.567c-16.797,0-30.463,13.666-30.463,30.463v40.113c0,4.142,3.357,7.5,7.5,7.5h142.493
                        c4.143,0,7.5-3.358,7.5-7.5v-40.113C291.822,154.77,278.156,141.104,261.359,141.104z M276.822,204.18H149.329v-32.613
                        c0-8.526,6.937-15.463,15.463-15.463h96.567c8.526,0,15.463,6.937,15.463,15.463V204.18z" />
                        <path d="M167.755,230.738h-25.926c-4.143,0-7.5,3.358-7.5,7.5v22.963c0,4.142,3.357,7.5,7.5,7.5h25.926c4.143,0,7.5-3.358,7.5-7.5
                        v-22.963C175.255,234.096,171.897,230.738,167.755,230.738z M160.255,253.702h-10.926v-7.963h10.926V253.702z" />
                        <path d="M167.755,280.792h-25.926c-4.143,0-7.5,3.358-7.5,7.5v22.963c0,4.142,3.357,7.5,7.5,7.5h25.926c4.143,0,7.5-3.358,7.5-7.5
                        v-22.963C175.255,284.15,171.897,280.792,167.755,280.792z M160.255,303.756h-10.926v-7.963h10.926V303.756z" />
                        <path d="M167.755,330.847h-25.926c-4.143,0-7.5,3.358-7.5,7.5c0,16.797,13.666,30.463,30.463,30.463h2.963
                        c4.143,0,7.5-3.358,7.5-7.5v-22.963C175.255,334.205,171.897,330.847,167.755,330.847z M160.255,353.131
                        c-3.846-1.183-7.058-3.828-8.982-7.284h8.982V353.131z" />
                        <path d="M225.722,230.738h-25.926c-4.143,0-7.5,3.358-7.5,7.5v22.963c0,4.142,3.357,7.5,7.5,7.5h25.926c4.143,0,7.5-3.358,7.5-7.5
                        v-22.963C233.222,234.096,229.865,230.738,225.722,230.738z M218.222,253.702h-10.926v-7.963h10.926V253.702z" />
                        <path d="M225.722,280.792h-25.926c-4.143,0-7.5,3.358-7.5,7.5v22.963c0,4.142,3.357,7.5,7.5,7.5h25.926c4.143,0,7.5-3.358,7.5-7.5
                        v-22.963C233.222,284.15,229.865,280.792,225.722,280.792z M218.222,303.756h-10.926v-7.963h10.926V303.756z" />
                        <path d="M225.722,330.847h-25.926c-4.143,0-7.5,3.358-7.5,7.5v22.963c0,4.142,3.357,7.5,7.5,7.5h25.926c4.143,0,7.5-3.358,7.5-7.5
                        v-22.963C233.222,334.205,229.865,330.847,225.722,330.847z M218.222,353.81h-10.926v-7.963h10.926V353.81z" />
                        <path d="M284.322,230.738h-25.926c-4.143,0-7.5,3.358-7.5,7.5v22.963c0,4.142,3.357,7.5,7.5,7.5h25.926c4.143,0,7.5-3.358,7.5-7.5
                        v-22.963C291.822,234.096,288.464,230.738,284.322,230.738z M276.822,253.702h-10.926v-7.963h10.926V253.702z" />
                        <path d="M284.322,280.792h-25.926c-4.143,0-7.5,3.358-7.5,7.5v22.963c0,4.142,3.357,7.5,7.5,7.5h25.926c4.143,0,7.5-3.358,7.5-7.5
                        v-22.963C291.822,284.15,288.464,280.792,284.322,280.792z M276.822,303.756h-10.926v-7.963h10.926V303.756z" />
                        <path d="M284.322,330.847h-25.926c-4.143,0-7.5,3.358-7.5,7.5v22.963c0,4.142,3.357,7.5,7.5,7.5h2.963
                        c16.797,0,30.463-13.666,30.463-30.463C291.822,334.205,288.464,330.847,284.322,330.847z M265.896,353.131v-7.284h8.982
                        C272.954,349.303,269.742,351.948,265.896,353.131z" />
                        <path d="M196.559,127.81h30c4.143,0,7.5-3.358,7.5-7.5s-3.357-7.5-7.5-7.5h-30c-4.143,0-7.5,3.358-7.5,7.5
                        S192.417,127.81,196.559,127.81z" />
                      </g>
                  </svg>